<?xml version="1.0" standalone="no"?>
<!DOCTYPE svg PUBLIC "-//W3C//DTD SVG 20010904//EN"
 "http://www.w3.org/TR/2001/REC-SVG-20010904/DTD/svg10.dtd">
<svg version="1.0" xmlns="http://www.w3.org/2000/svg"
 width="998.000000pt" height="992.000000pt" viewBox="0 0 998.000000 992.000000"
 preserveAspectRatio="xMidYMid meet">

<g transform="translate(0.000000,992.000000) scale(0.100000,-0.100000)"
fill="#000000" stroke="none">
<path d="M2047 5750 c-169 -30 -313 -106 -438 -230 -175 -172 -261 -396 -246
-635 20 -305 201 -569 480 -700 101 -48 175 -65 307 -72 264 -13 491 84 664
284 78 90 135 197 172 318 35 119 37 297 5 420 -78 294 -301 519 -596 600 -70
19 -278 28 -348 15z m598 -347 c-3 -16 -21 -64 -38 -108 -27 -68 -37 -82 -67
-96 -32 -16 -33 -17 -12 -20 l24 -4 -30 -41 c-27 -38 -35 -41 -85 -47 -84 -8
-107 -26 -34 -27 31 0 57 -4 57 -8 0 -13 -123 -128 -179 -167 -102 -71 -327
-163 -347 -142 -7 6 109 146 202 243 33 34 84 88 114 119 75 79 33 54 -81 -48
-172 -154 -320 -329 -438 -514 -18 -29 -35 -53 -37 -53 -12 0 74 167 127 245
15 23 42 81 61 131 36 97 101 202 175 284 48 54 144 130 163 130 6 0 16 -12
22 -27 12 -28 12 -28 16 15 2 31 9 46 27 58 58 38 259 102 324 103 42 1 43 0
36 -26z"/>
<path d="M3452 5618 c-9 -9 -12 -176 -12 -709 0 -615 2 -698 15 -709 10 -9 19
-10 25 -4 14 14 8 1426 -5 1431 -6 2 -16 -2 -23 -9z"/>
<path d="M3889 5367 l-24 -13 -3 -411 c-2 -364 0 -413 14 -427 13 -14 50 -16
259 -16 343 0 442 23 554 128 74 69 114 161 119 273 12 243 -105 399 -341 454
-90 21 -541 30 -578 12z m549 -230 c64 -42 86 -94 86 -197 0 -96 -20 -148 -74
-193 -45 -39 -92 -49 -210 -45 l-105 3 -3 220 c-1 121 0 226 3 233 4 11 31 13
133 11 120 -4 131 -6 170 -32z"/>
<path d="M6766 5365 c-21 -10 -21 -18 -23 -410 -2 -307 0 -406 10 -425 12 -24
16 -25 126 -28 72 -2 118 1 125 8 6 6 13 70 16 148 l5 137 102 0 c129 0 138
-6 219 -151 34 -60 69 -117 79 -126 16 -15 38 -18 147 -18 145 0 157 7 123 64
-9 17 -41 73 -69 125 -28 51 -72 116 -98 142 l-47 49 48 25 c88 44 128 115
118 212 -16 155 -138 237 -381 254 -160 11 -473 8 -500 -6z m553 -210 c52 -27
57 -90 10 -129 -30 -25 -35 -26 -170 -26 l-139 0 0 85 0 85 135 0 c100 0 144
-4 164 -15z"/>
<path d="M4927 5363 c-4 -3 -7 -43 -7 -88 0 -99 5 -105 95 -113 l65 -5 0 -223
0 -224 -61 0 c-94 0 -99 -6 -99 -103 0 -51 5 -88 12 -95 9 -9 87 -12 290 -12
321 0 298 -8 298 108 0 88 -12 100 -100 104 l-65 3 0 220 0 220 66 5 c91 7 99
15 99 109 0 47 -5 82 -12 89 -9 9 -88 12 -293 12 -155 0 -285 -3 -288 -7z"/>
<path d="M5938 5353 c-24 -29 -370 -812 -366 -831 3 -15 18 -17 133 -17 l130
0 22 43 c12 24 26 56 32 73 l10 29 201 -2 202 -3 24 -60 c13 -33 32 -66 41
-73 13 -9 53 -12 143 -10 110 3 125 5 128 21 4 20 -341 802 -365 829 -14 16
-36 18 -168 18 -132 0 -154 -2 -167 -17z m223 -364 c26 -63 45 -117 42 -121
-2 -5 -49 -8 -104 -8 -78 0 -99 3 -99 14 0 27 93 237 104 233 6 -2 32 -55 57
-118z"/>
<path d="M7744 5355 c-6 -16 19 -59 211 -360 67 -104 127 -200 134 -212 6 -13
11 -70 11 -140 0 -79 4 -123 12 -131 17 -17 229 -17 246 0 8 8 12 52 12 133
l0 122 68 109 c38 60 115 181 171 269 57 88 108 167 114 176 6 9 7 24 4 33 -5
14 -25 16 -127 16 -67 0 -130 -4 -140 -10 -10 -5 -62 -82 -116 -170 -61 -99
-104 -159 -113 -158 -7 2 -52 67 -100 145 -124 204 -109 193 -258 193 -101 0
-125 -3 -129 -15z"/>
</g>
</svg>
